<?xml version="1.0" standalone="no"?>
<!DOCTYPE svg PUBLIC "-//W3C//DTD SVG 20010904//EN"
 "http://www.w3.org/TR/2001/REC-SVG-20010904/DTD/svg10.dtd">
<svg version="1.0" xmlns="http://www.w3.org/2000/svg"
 width="512.000000pt" height="512.000000pt" viewBox="0 0 512.000000 512.000000"
 preserveAspectRatio="xMidYMid meet">
<metadata>
Created by potrace 1.14, written by Peter Selinger 2001-2017
</metadata>
<g transform="translate(0.000000,512.000000) scale(0.100000,-0.100000)"
fill="#000000" stroke="none">
<path d="M251 4921 c-129 -109 -236 -202 -238 -207 -2 -5 54 -37 124 -71 71
-33 186 -89 258 -124 72 -34 132 -64 135 -66 3 -3 -2 -10 -12 -17 -9 -6 -57
-50 -107 -96 -103 -94 -103 -92 9 -105 36 -3 76 -8 90 -10 14 -3 48 -7 75 -10
28 -3 61 -8 75 -10 14 -2 81 -11 150 -20 69 -9 139 -18 157 -21 l32 -5 -5 48
c-2 26 -6 64 -9 83 -3 19 -8 53 -11 75 -3 22 -7 56 -9 75 -3 19 -7 55 -10 80
-4 25 -8 59 -10 75 -4 30 -16 133 -21 170 -1 11 -3 24 -3 28 -1 5 -44 -30 -96
-78 -53 -49 -97 -86 -99 -84 -1 2 -21 42 -43 89 -23 47 -75 156 -117 243 -42
86 -77 157 -78 156 -2 0 -109 -89 -237 -198z"/>
<path d="M4680 5111 c0 -5 -68 -123 -151 -261 -150 -250 -151 -251 -172 -233
-42 37 -56 49 -111 102 -31 30 -56 48 -57 40 0 -8 -2 -22 -4 -32 -5 -29 -24
-148 -29 -187 -7 -53 -18 -133 -21 -150 -2 -8 -8 -51 -15 -95 -6 -44 -13 -93
-16 -108 -4 -28 -4 -28 43 -22 57 7 105 13 153 20 35 4 53 6 215 25 122 14
163 19 206 26 l36 5 -66 63 c-36 34 -83 78 -104 97 l-39 35 39 17 c50 22 455
187 468 191 6 2 23 8 39 15 28 11 29 12 10 30 -10 10 -102 105 -204 211 -223
233 -210 220 -216 220 -2 0 -4 -4 -4 -9z"/>
<path d="M2776 4003 c-1 -1 -355 -5 -786 -8 -431 -3 -785 -7 -787 -8 -2 -3 -9
-200 -18 -542 -3 -110 -7 -274 -10 -365 -3 -91 -7 -255 -10 -365 -6 -212 -12
-427 -20 -690 -2 -88 -7 -257 -10 -375 -3 -118 -8 -288 -10 -378 l-5 -163 783
6 c782 6 1686 13 1955 14 l142 1 -5 123 c-2 67 -7 187 -10 267 -3 80 -7 195
-10 255 -2 61 -7 187 -10 280 -3 94 -8 206 -10 250 -2 44 -6 159 -10 255 -3
96 -8 216 -10 265 -2 50 -7 173 -11 275 -3 102 -7 212 -9 245 -1 33 -6 159
-10 280 -5 121 -9 238 -11 260 -1 22 -2 59 -3 82 l-1 43 -556 -3 c-306 -1
-557 -3 -558 -4z"/>
<path d="M4145 903 c6 -41 16 -106 21 -138 1 -11 8 -56 14 -100 6 -44 13 -91
15 -105 14 -82 38 -258 37 -272 -1 -35 20 -29 76 19 31 27 68 59 82 71 14 11
36 30 49 41 13 11 27 18 32 16 7 -5 44 -71 142 -255 22 -41 53 -98 69 -127
l29 -52 79 57 c236 172 320 235 320 242 0 4 -66 47 -147 96 -81 49 -165 100
-188 114 -23 14 -60 36 -83 49 -23 14 -42 28 -42 32 0 8 108 104 151 134 16
11 27 24 26 30 -2 5 -50 22 -108 36 -213 55 -545 140 -562 145 -15 5 -16 0
-12 -33z"/>
<path d="M347 872 l-97 -3 72 -82 c40 -45 82 -93 95 -107 14 -15 19 -28 13
-34 -5 -5 -103 -64 -217 -131 -114 -67 -207 -125 -207 -129 3 -16 228 -376
234 -376 4 0 74 91 156 203 81 111 159 216 172 233 l25 31 61 -70 c34 -38 75
-87 91 -108 17 -21 34 -37 39 -35 8 2 45 178 80 376 2 14 14 72 25 130 12 58
21 106 21 107 0 2 -448 -1 -563 -5z"/>
</g>
</svg>
